<?xml version="1.0" encoding="UTF-8"?>
<svg width="100px" height="78px" viewBox="0 0 100 78" version="1.1" xmlns="http://www.w3.org/2000/svg" xmlns:xlink="http://www.w3.org/1999/xlink">
    <title>ic_cloudy_day_100px_10_26</title>
    <defs>
        <linearGradient x1="57.8203129%" y1="66.5810163%" x2="28.4289478%" y2="35.8934866%" id="linearGradient-1">
            <stop stop-color="#FFDD00" offset="0%"></stop>
            <stop stop-color="#FFD325" offset="100%"></stop>
        </linearGradient>
        <linearGradient x1="46.7541907%" y1="18.1759379%" x2="58.8703178%" y2="82.7307002%" id="linearGradient-2">
            <stop stop-color="#FFD313" offset="0%"></stop>
            <stop stop-color="#FF6600" stop-opacity="0.740985577" offset="100%"></stop>
        </linearGradient>
        <linearGradient x1="44.3190466%" y1="18.1759379%" x2="65.5252073%" y2="82.7307002%" id="linearGradient-3">
            <stop stop-color="#FFD313" offset="0%"></stop>
            <stop stop-color="#FF6600" stop-opacity="0.740985577" offset="100%"></stop>
        </linearGradient>
        <linearGradient x1="39.6012998%" y1="32.6140757%" x2="78.4181131%" y2="67.8812332%" id="linearGradient-4">
            <stop stop-color="#FFD313" offset="0%"></stop>
            <stop stop-color="#FF6600" stop-opacity="0.740985577" offset="100%"></stop>
        </linearGradient>
        <linearGradient x1="39.6012998%" y1="39.6667793%" x2="78.4181131%" y2="60.6276046%" id="linearGradient-5">
            <stop stop-color="#FFD313" offset="0%"></stop>
            <stop stop-color="#FF6600" stop-opacity="0.740985577" offset="100%"></stop>
        </linearGradient>
        <linearGradient x1="46.6232421%" y1="18.1759379%" x2="59.228181%" y2="82.7307002%" id="linearGradient-6">
            <stop stop-color="#FFD313" offset="0%"></stop>
            <stop stop-color="#FF6600" stop-opacity="0.740985577" offset="100%"></stop>
        </linearGradient>
        <linearGradient x1="39.6012998%" y1="40.0708958%" x2="78.4181131%" y2="60.2119752%" id="linearGradient-7">
            <stop stop-color="#FFD313" offset="0%"></stop>
            <stop stop-color="#FF6600" stop-opacity="0.740985577" offset="100%"></stop>
        </linearGradient>
        <linearGradient x1="100%" y1="60.2863186%" x2="0%" y2="39.7010226%" id="linearGradient-8">
            <stop stop-color="#D0DBE1" offset="0%"></stop>
            <stop stop-color="#9D9D9D" offset="100%"></stop>
        </linearGradient>
    </defs>
    <g id="ic_cloudy_day_100px_10_26" stroke="none" stroke-width="1" fill="none" fill-rule="evenodd">
        <rect id="icon" x="0" y="0" width="100" height="100"></rect>
        <rect id="icon" x="0" y="0" width="100" height="100"></rect>
        <g id="Group" transform="translate(11.000000, 2.000000)">
            <path d="M33.3998812,14.2838568 C43.8123847,14.2838568 52.2696075,22.6602267 52.3986761,33.0428492 C50.2471754,31.2626987 47.5105557,30.2338568 44.5937733,30.2338568 C41.1326471,30.2338568 37.909875,31.6826927 35.614062,34.1536911 C34.1272343,33.4077186 32.4860894,33.0102568 30.7889733,33.0102568 C25.5168396,33.0102568 21.0883658,36.8003371 20.1618059,41.8608246 C19.0120472,41.975552 17.9129099,42.2617321 16.8902998,42.6934021 C15.3057329,39.9198422 14.4001733,36.7076304 14.4001733,33.2838568 C14.4001733,22.7901599 22.9069298,14.2838568 33.3998812,14.2838568 Z" id="Combined-Shape" fill="url(#linearGradient-1)"></path>
            <g id="Raggi" transform="translate(-0.000000, 0.000000)">
                <path d="M33.4368333,10.3269895 C31.8444333,10.3269895 30.5526333,4.39924211 30.5526333,2.83418947 C30.5526333,1.26913684 31.8444333,-3.10862447e-14 33.4368333,-3.10862447e-14 C35.0304333,-3.10862447e-14 36.3222333,1.26913684 36.3222333,2.83418947 C36.3222333,4.39924211 35.0304333,10.3269895 33.4368333,10.3269895 Z" id="Fill-3" fill="url(#linearGradient-2)"></path>
                <path d="M20.2933735,5.66921892 C21.0467075,6.99414497 22.8429008,12.6302652 21.5383331,13.395266 C20.2331976,14.1596907 16.3200621,9.76266437 15.5661604,8.43889043 C14.8128265,7.11396437 15.2596041,5.42036324 16.5653072,4.65536246 C17.8704426,3.89036167 19.5394719,4.34486892 20.2933735,5.66921892" id="Fill-6" fill="url(#linearGradient-3)"></path>
                <path d="M8.15480329,15.850258 C9.47979969,16.603628 13.8764834,20.5169512 13.111442,21.8215815 C12.3464006,23.1267796 6.71055722,21.3310678 5.38556083,20.57713 C4.06056443,19.8231922 3.60660915,18.1552184 4.37222663,16.8488849 C5.13669194,15.5431191 6.8298069,15.0963202 8.15480329,15.850258" id="Fill-8" fill="url(#linearGradient-4)"></path>
                <path d="M2.77737778,30.3623968 C4.31195556,30.3623968 10.1220889,31.6529968 10.1220889,33.2465968 C10.1220889,34.8383968 4.31195556,36.1301968 2.77853333,36.1301968 C1.24453333,36.1301968 1.77635684e-14,34.8395968 1.77635684e-14,33.2465968 C1.77635684e-14,31.6529968 1.24453333,30.3623968 2.77737778,30.3623968" id="Fill-10" fill="url(#linearGradient-5)"></path>
                <path d="M5.38548503,45.9908059 C6.71036291,45.2374061 12.3468542,43.4410556 13.1118272,44.7457375 C13.8750721,46.0509871 9.47878164,49.9644649 8.15563186,50.717297 C6.83075399,51.4712646 5.13606237,51.0250157 4.37166544,49.7191983 C3.60669247,48.413381 4.06118319,46.7447735 5.38548503,45.9908059" id="Fill-13" fill="url(#linearGradient-4)"></path>
                <path d="M15.5664807,58.1296315 C16.320448,56.8046775 20.2327889,52.4075582 21.5386057,53.1725751 C22.8427193,53.9375921 21.0463695,59.5744075 20.2941055,60.8982095 C19.5401382,62.2225875 17.8703959,62.6776804 16.564579,61.9120874 C15.2587622,61.1476465 14.8130812,59.4540095 15.5664807,58.1296315" id="Fill-15" fill="url(#linearGradient-3)"></path>
                <path d="M30.5525133,63.9061324 C30.5525133,62.3715546 31.8431133,56.5619991 33.4373133,56.5614213 C35.0291133,56.5619991 36.3209133,62.3727102 36.3209133,63.9049768 C36.3209133,65.4395546 35.0291133,66.684088 33.4361133,66.684088 C31.8419133,66.684088 30.5525133,65.4395546 30.5525133,63.9061324" id="Fill-17" fill="url(#linearGradient-6)"></path>
                <path d="M50.8333018,8.43821641 C50.0798551,9.76325336 46.1661335,14.1606477 44.8613704,13.3950068 C43.5583106,12.629942 45.3530696,6.99277392 46.1059486,5.66946528 C46.8599632,4.34558053 48.5292423,3.88988304 49.8362766,4.65552396 C51.1421753,5.42058877 51.5873164,7.11433166 50.8333018,8.43821641" id="Fill-29" fill="url(#linearGradient-3)"></path>
                <path d="M61.0142189,20.576699 C59.6894287,21.3307228 54.0533104,23.1266393 53.288388,21.8218602 C52.5257697,20.517649 56.9217692,16.6027441 58.2442554,15.8504237 C59.5690456,15.0963999 61.2630491,15.5426821 62.0291234,16.8491645 C62.7940457,18.1550791 62.3378571,19.8238109 61.0142189,20.576699" id="Fill-27" fill="url(#linearGradient-4)"></path>
                <path d="M46.1073985,60.8986518 C45.353345,59.5737559 43.5573577,53.9377636 44.8621882,53.1722042 C46.1664508,52.4089489 50.0815101,56.8052993 50.8338602,58.1284672 C51.5879137,59.4533631 51.1404783,61.1475019 49.8345122,61.9124853 C48.5291139,62.6774687 46.8603163,62.2223957 46.1073985,60.8986518" id="Fill-20" fill="url(#linearGradient-3)"></path>
                <path d="M58.2457248,50.7175538 C56.9200768,49.9641633 52.5242949,46.0507339 53.2888038,44.7455005 C54.0538888,43.4414025 59.6912054,45.237163 61.0139728,45.9899858 C62.3384685,46.743944 62.7941781,48.4130986 62.028517,49.7194675 C61.263432,51.0252687 59.5696445,51.4709443 58.2457248,50.7175538" id="Fill-22" fill="url(#linearGradient-4)"></path>
                <path d="M63.8493102,36.1315168 C62.2842575,36.1315168 56.3565102,34.8397168 56.3565102,33.2467168 C56.3576891,31.6555168 62.2854365,30.3625168 63.8481312,30.3625168 C65.4137733,30.3637168 66.6846786,31.6543168 66.6846786,33.2473168 C66.6846786,34.8409168 65.4137733,36.1315168 63.8493102,36.1315168" id="Fill-24" fill="url(#linearGradient-7)"></path>
            </g>
            <g id="Nuvola" transform="translate(12.200173, 32.483857)" fill="url(#linearGradient-8)" fill-rule="nonzero">
                <path d="M46.044,5.032 C51.6965283,5.032 56.4021174,9.34264237 56.926667,14.9327805 L57.0174573,15.9003345 L57.9775261,16.050905 C62.4454098,16.7516168 65.7796,20.6060457 65.7796,25.1692 C65.7796,30.2734075 61.6410806,34.4116 56.5368,34.4116 L56.4559304,34.4074873 L56.4327518,34.4059023 C56.363053,34.4010673 56.363053,34.4010673 56.2671837,34.3964758 L55.4953658,34.3675688 L55.1241992,35.0448972 C53.4590037,38.083652 50.2719768,40.0124 46.744,40.0124 C44.4968417,40.0124 42.3727521,39.2355807 40.674408,37.8364305 L39.89143,37.1913882 L39.0990567,37.8248537 C37.659592,38.9756384 35.8859908,39.6116 34.0128,39.6116 C33.1198504,39.6116 32.2386077,39.4606492 31.3848258,39.1693589 L30.665878,38.9240708 L30.1170193,39.4492435 C28.626395,40.8755397 26.6613083,41.6836 24.5656,41.6836 C21.3674125,41.6836 18.5165244,39.7961718 17.228291,36.9216014 L16.8582046,36.0957888 L15.9581245,36.1895236 C15.6771043,36.2187892 15.3972588,36.2336 15.1184,36.2336 C11.353063,36.2336 8.11585389,33.6336048 7.26180382,30.0133893 L7.09900218,29.3232927 L6.42314964,29.1089076 C2.77654343,27.9521789 0.25,24.5562176 0.25,20.6712 C0.25,15.7952208 4.19371043,11.8386235 9.06907454,11.8203913 L10.2190328,11.8160908 L10.3104445,10.6697635 C10.6535072,6.36766595 14.25,3.0264 18.5888,3.0264 C20.177246,3.0264 21.6994378,3.47899869 23.0279781,4.32041955 L23.9863405,4.92739102 L24.6831704,4.03223688 C26.5283351,1.66192114 29.3433321,0.25 32.3936,0.25 C35.9164331,0.25 39.1080028,2.13425609 40.8496297,5.13575222 L41.3724063,6.03669824 L42.3528651,5.68498874 C43.5506352,5.25532547 44.7884784,5.032 46.044,5.032 Z" id="Fill-1"></path>
            </g>
        </g>
    </g>
</svg>