<?xml version="1.0" encoding="UTF-8"?>
<svg width="100px" height="78px" viewBox="0 0 100 78" version="1.1" xmlns="http://www.w3.org/2000/svg" xmlns:xlink="http://www.w3.org/1999/xlink">
    <title>ic_parz_day_100px_21</title>
    <defs>
        <linearGradient x1="56.7855965%" y1="79.6630327%" x2="31.2830436%" y2="24.7637925%" id="linearGradient-1">
            <stop stop-color="#FFDD00" offset="0%"></stop>
            <stop stop-color="#FFD325" offset="100%"></stop>
        </linearGradient>
        <linearGradient x1="46.7541907%" y1="18.1759379%" x2="58.8703178%" y2="82.7307002%" id="linearGradient-2">
            <stop stop-color="#FFD313" offset="0%"></stop>
            <stop stop-color="#FF6600" stop-opacity="0.740985577" offset="100%"></stop>
        </linearGradient>
        <linearGradient x1="44.3190466%" y1="18.1759379%" x2="65.5252073%" y2="82.7307002%" id="linearGradient-3">
            <stop stop-color="#FFD313" offset="0%"></stop>
            <stop stop-color="#FF6600" stop-opacity="0.740985577" offset="100%"></stop>
        </linearGradient>
        <linearGradient x1="39.6012998%" y1="32.6140757%" x2="78.4181131%" y2="67.8812332%" id="linearGradient-4">
            <stop stop-color="#FFD313" offset="0%"></stop>
            <stop stop-color="#FF6600" stop-opacity="0.740985577" offset="100%"></stop>
        </linearGradient>
        <linearGradient x1="39.6012998%" y1="39.6667793%" x2="78.4181131%" y2="60.6276046%" id="linearGradient-5">
            <stop stop-color="#FFD313" offset="0%"></stop>
            <stop stop-color="#FF6600" stop-opacity="0.740985577" offset="100%"></stop>
        </linearGradient>
        <linearGradient x1="46.6232421%" y1="18.1759379%" x2="59.228181%" y2="82.7307002%" id="linearGradient-6">
            <stop stop-color="#FFD313" offset="0%"></stop>
            <stop stop-color="#FF6600" stop-opacity="0.740985577" offset="100%"></stop>
        </linearGradient>
        <linearGradient x1="39.6012998%" y1="40.0708958%" x2="78.4181131%" y2="60.2119752%" id="linearGradient-7">
            <stop stop-color="#FFD313" offset="0%"></stop>
            <stop stop-color="#FF6600" stop-opacity="0.740985577" offset="100%"></stop>
        </linearGradient>
        <linearGradient x1="100%" y1="60.6330685%" x2="0%" y2="39.3538458%" id="linearGradient-8">
            <stop stop-color="#D0DBE1" offset="0%"></stop>
            <stop stop-color="#9D9D9D" offset="100%"></stop>
        </linearGradient>
    </defs>
    <g id="ic_parz_day_100px_21" stroke="none" stroke-width="1" fill="none" fill-rule="evenodd">
        <g id="Group" transform="translate(14.000000, 6.000000)">
            <path d="M21.8432928,25.8560617 C21.6034075,25.9198779 21.3353005,25.8756975 21.1189335,25.7038847 C20.7473466,25.4093484 20.7117702,24.8779571 20.9543064,24.4668325 C23.0111175,20.9803198 26.984178,18.90497 27.0782506,18.8362449 C27.4639485,18.5613444 27.9907552,18.669341 28.2541586,19.0718739 C28.517562,19.4744067 28.4140821,20.0242077 28.0283843,20.2991082 C27.9907552,20.3236528 24.2501588,22.5586377 22.3042487,25.5369808 C22.1950271,25.7041515 22.0220308,25.8069724 21.8432928,25.8560617 Z M19.8845892,29.0547678 C19.6771674,29.1123641 19.4456268,29.086184 19.2430288,28.9605193 C18.8233616,28.7039539 18.6786487,28.1279907 18.9101893,27.6776922 L19.1754962,27.1645614 C19.4118605,26.7090269 19.9424743,26.551946 20.3573178,26.8032754 C20.7769851,27.0598408 20.9216979,27.635804 20.6901574,28.0861025 L20.4248505,28.5992333 C20.3042564,28.8400906 20.1064822,28.9971715 19.8845892,29.0547678 Z" id="Riflesso" fill="#FFFFFF" fill-rule="nonzero"></path>
            <path d="M61.8663424,31.3975651 C61.7663244,31.4234904 61.6545397,31.4055421 61.5643274,31.3357431 C61.4093977,31.2160878 61.3945644,31.0002101 61.4956877,30.8331907 C62.3532562,29.4167949 64.0097871,28.5736841 64.0490098,28.5457645 C64.209823,28.4340862 64.4294702,28.4779598 64.5392938,28.6414888 C64.6491174,28.8050177 64.6059725,29.0283744 64.4451593,29.1400527 C64.4294702,29.150024 62.869863,30.0579866 62.0585337,31.2679385 C62.0129948,31.3358516 61.9408655,31.3776225 61.8663424,31.3975651 Z M61.0966629,32.8595394 C61.0208243,32.8829379 60.9361673,32.8723022 60.8620924,32.821251 C60.7086515,32.7170213 60.6557409,32.4830362 60.7403979,32.3001025 L60.8374008,32.0916431 C60.9238215,31.9065822 61.1178271,31.8427681 61.2695043,31.9448706 C61.4229451,32.0491003 61.4758558,32.2830854 61.3911988,32.4660191 L61.2941959,32.6744785 C61.2501037,32.7723268 61.1777925,32.8361409 61.0966629,32.8595394 Z" id="Riflesso-Copy-3" fill="#FFFFFF" fill-rule="nonzero" transform="translate(62.650173, 30.677607) scale(-1, 1) translate(-62.650173, -30.677607) "></path>
            <path d="M33.3998812,14.2838568 C40.3889372,14.2838568 46.4970744,18.0576888 49.7970992,23.6789925 C49.5266875,23.8804989 49.270425,24.1017815 49.0289729,24.3410481 C48.2361618,23.9961914 47.3797112,23.813741 46.4981201,23.813741 C43.4423147,23.813741 40.8671436,25.9754282 40.1680996,28.9084698 C36.918558,29.4491338 34.4501733,32.3432295 34.4501733,35.8156485 C34.4501733,38.6384721 36.0948158,41.1410802 38.552616,42.2356378 C39.4095634,44.7584741 41.7024593,46.539176 44.3730625,46.6290228 C44.6735437,47.1285287 45.035597,47.5803048 45.4470668,47.9748403 C42.1691846,50.6680342 37.9731222,52.2838568 33.3998812,52.2838568 C22.9069298,52.2838568 14.4001733,43.7775538 14.4001733,33.2838568 C14.4001733,22.7901599 22.9069298,14.2838568 33.3998812,14.2838568 Z" id="Combined-Shape" fill="url(#linearGradient-1)"></path>
            <g id="Raggi">
                <path d="M33.4368333,10.3269895 C31.8444333,10.3269895 30.5526333,4.39924211 30.5526333,2.83418947 C30.5526333,1.26913684 31.8444333,-3.10862447e-14 33.4368333,-3.10862447e-14 C35.0304333,-3.10862447e-14 36.3222333,1.26913684 36.3222333,2.83418947 C36.3222333,4.39924211 35.0304333,10.3269895 33.4368333,10.3269895 Z" id="Fill-3" fill="url(#linearGradient-2)"></path>
                <path d="M20.2933735,5.66921892 C21.0467075,6.99414497 22.8429008,12.6302652 21.5383331,13.395266 C20.2331976,14.1596907 16.3200621,9.76266437 15.5661604,8.43889043 C14.8128265,7.11396437 15.2596041,5.42036324 16.5653072,4.65536246 C17.8704426,3.89036167 19.5394719,4.34486892 20.2933735,5.66921892" id="Fill-6" fill="url(#linearGradient-3)"></path>
                <path d="M8.15480329,15.850258 C9.47979969,16.603628 13.8764834,20.5169512 13.111442,21.8215815 C12.3464006,23.1267796 6.71055722,21.3310678 5.38556083,20.57713 C4.06056443,19.8231922 3.60660915,18.1552184 4.37222663,16.8488849 C5.13669194,15.5431191 6.8298069,15.0963202 8.15480329,15.850258" id="Fill-8" fill="url(#linearGradient-4)"></path>
                <path d="M2.77737778,30.3623968 C4.31195556,30.3623968 10.1220889,31.6529968 10.1220889,33.2465968 C10.1220889,34.8383968 4.31195556,36.1301968 2.77853333,36.1301968 C1.24453333,36.1301968 1.77635684e-14,34.8395968 1.77635684e-14,33.2465968 C1.77635684e-14,31.6529968 1.24453333,30.3623968 2.77737778,30.3623968" id="Fill-10" fill="url(#linearGradient-5)"></path>
                <path d="M5.38548503,45.9908059 C6.71036291,45.2374061 12.3468542,43.4410556 13.1118272,44.7457375 C13.8750721,46.0509871 9.47878164,49.9644649 8.15563186,50.717297 C6.83075399,51.4712646 5.13606237,51.0250157 4.37166544,49.7191983 C3.60669247,48.413381 4.06118319,46.7447735 5.38548503,45.9908059" id="Fill-13" fill="url(#linearGradient-4)"></path>
                <path d="M15.5664807,58.1296315 C16.320448,56.8046775 20.2327889,52.4075582 21.5386057,53.1725751 C22.8427193,53.9375921 21.0463695,59.5744075 20.2941055,60.8982095 C19.5401382,62.2225875 17.8703959,62.6776804 16.564579,61.9120874 C15.2587622,61.1476465 14.8130812,59.4540095 15.5664807,58.1296315" id="Fill-15" fill="url(#linearGradient-3)"></path>
                <path d="M30.5525133,63.9061324 C30.5525133,62.3715546 31.8431133,56.5619991 33.4373133,56.5614213 C35.0291133,56.5619991 36.3209133,62.3727102 36.3209133,63.9049768 C36.3209133,65.4395546 35.0291133,66.684088 33.4361133,66.684088 C31.8419133,66.684088 30.5525133,65.4395546 30.5525133,63.9061324" id="Fill-17" fill="url(#linearGradient-6)"></path>
                <path d="M50.8333018,8.43821641 C50.0798551,9.76325336 46.1661335,14.1606477 44.8613704,13.3950068 C43.5583106,12.629942 45.3530696,6.99277392 46.1059486,5.66946528 C46.8599632,4.34558053 48.5292423,3.88988304 49.8362766,4.65552396 C51.1421753,5.42058877 51.5873164,7.11433166 50.8333018,8.43821641" id="Fill-29" fill="url(#linearGradient-3)"></path>
                <path d="M61.0142189,20.576699 C59.6894287,21.3307228 54.0533104,23.1266393 53.288388,21.8218602 C52.5257697,20.517649 56.9217692,16.6027441 58.2442554,15.8504237 C59.5690456,15.0963999 61.2630491,15.5426821 62.0291234,16.8491645 C62.7940457,18.1550791 62.3378571,19.8238109 61.0142189,20.576699" id="Fill-27" fill="url(#linearGradient-4)"></path>
                <path d="M46.1073985,60.8986518 C45.353345,59.5737559 43.5573577,53.9377636 44.8621882,53.1722042 C46.1664508,52.4089489 50.0815101,56.8052993 50.8338602,58.1284672 C51.5879137,59.4533631 51.1404783,61.1475019 49.8345122,61.9124853 C48.5291139,62.6774687 46.8603163,62.2223957 46.1073985,60.8986518" id="Fill-20" fill="url(#linearGradient-3)"></path>
                <path d="M58.2457248,50.7175538 C56.9200768,49.9641633 52.5242949,46.0507339 53.2888038,44.7455005 C54.0538888,43.4414025 59.6912054,45.237163 61.0139728,45.9899858 C62.3384685,46.743944 62.7941781,48.4130986 62.028517,49.7194675 C61.263432,51.0252687 59.5696445,51.4709443 58.2457248,50.7175538" id="Fill-22" fill="url(#linearGradient-4)"></path>
                <path d="M63.8493102,36.1315168 C62.2842575,36.1315168 56.3565102,34.8397168 56.3565102,33.2467168 C56.3576891,31.6555168 62.2854365,30.3625168 63.8481312,30.3625168 C65.4137733,30.3637168 66.6846786,31.6543168 66.6846786,33.2473168 C66.6846786,34.8409168 65.4137733,36.1315168 63.8493102,36.1315168" id="Fill-24" fill="url(#linearGradient-7)"></path>
            </g>
            <path d="M67.4121887,43.0948665 C67.358405,43.0910054 67.358405,43.0910054 67.2901041,43.0876225 L66.5057576,43.0572971 L66.1377267,43.7506025 C65.3131957,45.3038738 63.7461409,46.2828763 62.018129,46.2828763 C60.9186978,46.2828763 59.8793128,45.8904722 59.0440704,45.1801407 L58.2463175,44.5016922 L57.4386204,45.1682711 C56.7451076,45.7406154 55.8963049,46.0548048 55.0003015,46.0548048 C54.5750561,46.0548048 54.1543749,45.9804168 53.7444383,45.8360373 L53.0070024,45.5763126 L52.4507666,46.12574 C51.7326245,46.8350921 50.7932368,47.2338568 49.7927154,47.2338568 C48.2629579,47.2338568 46.8913719,46.2964607 46.2659964,44.8559081 L45.8998839,44.0125679 L44.9857704,44.1108399 C44.8513329,44.1252927 44.7178431,44.1325858 44.5851293,44.1325858 C42.7811752,44.1325858 41.218249,42.8367496 40.8022881,41.0165733 L40.6447441,40.3271867 L39.9726986,40.1071216 C38.1933365,39.5244594 36.9501733,37.7995195 36.9501733,35.8156485 C36.9501733,33.3290488 38.8832237,31.3270221 41.2528046,31.3178743 L42.4054882,31.3134244 L42.4942661,30.164156 C42.6622934,27.9889699 44.4090502,26.313741 46.4981201,26.313741 C47.2592353,26.313741 47.988919,26.5377103 48.6297745,26.956705 L49.608094,27.5963354 L50.3118469,26.6630787 C51.2259068,25.4509309 52.6108171,24.7338568 54.1077489,24.7338568 C55.8375785,24.7338568 57.4106327,25.692571 58.2752864,27.2308487 L58.7982171,28.1611778 L59.7990257,27.7905691 C60.3962473,27.5694124 61.0105144,27.4550088 61.6322676,27.4550088 C64.4484846,27.4550088 66.8076863,29.686026 67.0722841,32.5969582 L67.1600723,33.5627471 L68.1173778,33.7177351 C70.3044374,34.0718205 71.9501733,36.0358124 71.9501733,38.3751929 C71.9501733,40.9870845 69.9169624,43.0896393 67.4271577,43.0957805 C67.4242172,43.0955861 67.4192638,43.0952898 67.4121887,43.0948665 Z" id="Fill-1" fill="url(#linearGradient-8)" fill-rule="nonzero"></path>
        </g>
    </g>
</svg>