<?xml version="1.0" encoding="UTF-8"?>
<svg width="100px" height="74px" viewBox="0 0 100 74" version="1.1" xmlns="http://www.w3.org/2000/svg" xmlns:xlink="http://www.w3.org/1999/xlink">
    <title>ic_storm_day_100px_25</title>
    <defs>
        <linearGradient x1="57.8203129%" y1="66.3040917%" x2="28.4289478%" y2="36.1290838%" id="linearGradient-1">
            <stop stop-color="#FFDD00" offset="0%"></stop>
            <stop stop-color="#FFD325" offset="100%"></stop>
        </linearGradient>
        <linearGradient x1="46.7541907%" y1="18.1759379%" x2="58.8703178%" y2="82.7307002%" id="linearGradient-2">
            <stop stop-color="#FFD313" offset="0%"></stop>
            <stop stop-color="#FF6600" stop-opacity="0.740985577" offset="100%"></stop>
        </linearGradient>
        <linearGradient x1="44.3190466%" y1="18.1759379%" x2="65.5252073%" y2="82.7307002%" id="linearGradient-3">
            <stop stop-color="#FFD313" offset="0%"></stop>
            <stop stop-color="#FF6600" stop-opacity="0.740985577" offset="100%"></stop>
        </linearGradient>
        <linearGradient x1="39.6012998%" y1="32.6140757%" x2="78.4181131%" y2="67.8812332%" id="linearGradient-4">
            <stop stop-color="#FFD313" offset="0%"></stop>
            <stop stop-color="#FF6600" stop-opacity="0.740985577" offset="100%"></stop>
        </linearGradient>
        <linearGradient x1="39.6012998%" y1="39.6667793%" x2="78.4181131%" y2="60.6276046%" id="linearGradient-5">
            <stop stop-color="#FFD313" offset="0%"></stop>
            <stop stop-color="#FF6600" stop-opacity="0.740985577" offset="100%"></stop>
        </linearGradient>
        <linearGradient x1="46.6232421%" y1="18.1759379%" x2="59.228181%" y2="82.7307002%" id="linearGradient-6">
            <stop stop-color="#FFD313" offset="0%"></stop>
            <stop stop-color="#FF6600" stop-opacity="0.740985577" offset="100%"></stop>
        </linearGradient>
        <linearGradient x1="39.6012998%" y1="40.0708958%" x2="78.4181131%" y2="60.2119752%" id="linearGradient-7">
            <stop stop-color="#FFD313" offset="0%"></stop>
            <stop stop-color="#FF6600" stop-opacity="0.740985577" offset="100%"></stop>
        </linearGradient>
        <linearGradient x1="100%" y1="60.1842743%" x2="0.963365709%" y2="39.9995368%" id="linearGradient-8">
            <stop stop-color="#D0DBE1" offset="0%"></stop>
            <stop stop-color="#2B2B2B" offset="100%"></stop>
        </linearGradient>
        <linearGradient x1="52.6610787%" y1="79.6630327%" x2="42.6598503%" y2="24.7637925%" id="linearGradient-9">
            <stop stop-color="#FFA900" offset="0%"></stop>
            <stop stop-color="#FFD325" offset="100%"></stop>
        </linearGradient>
    </defs>
    <g id="ic_storm_day_100px_25" stroke="none" stroke-width="1" fill="none" fill-rule="evenodd">
        <rect id="icon" x="0" y="0" width="100" height="100"></rect>
        <rect id="icon" x="0" y="0" width="100" height="100"></rect>
        <g id="ic_storm" transform="translate(18.000000, 0.000000)">
            <g id="Group">
                <g id="Group-2" transform="translate(0.000000, -0.000000)">
                    <path d="M27.3271756,11.686792 C35.74629,11.686792 42.6030419,18.3799105 42.865098,26.735991 C41.0880408,25.3229545 38.8581245,24.5095192 36.4858145,24.5095192 C33.6477406,24.5095192 31.0010105,25.6738978 29.0884893,27.6661826 C27.8813263,27.0883026 26.5577103,26.7811192 25.1909782,26.7811192 C20.8245516,26.7811192 17.1477708,29.8787999 16.304624,34.0419598 C15.3934338,34.1492579 14.5217201,34.3852299 13.7081265,34.731191 C12.4803908,32.5086271 11.78196,29.9520224 11.78196,27.2322465 C11.78196,18.6464944 18.7420335,11.686792 27.3271756,11.686792 Z" id="Combined-Shape" fill="url(#linearGradient-1)"></path>
                    <g id="Raggi" transform="translate(0.000000, 0.000000)">
                        <path d="M27.3574091,8.44935502 C26.0545364,8.44935502 24.9976091,3.5993799 24.9976091,2.3188823 C24.9976091,1.03838469 26.0545364,-3.10862447e-14 27.3574091,-3.10862447e-14 C28.6612636,-3.10862447e-14 29.7181909,1.03838469 29.7181909,2.3188823 C29.7181909,3.5993799 28.6612636,8.44935502 27.3574091,8.44935502 Z" id="Fill-3" fill="url(#linearGradient-2)"></path>
                        <path d="M16.6036692,4.63845184 C17.2200334,5.72248225 18.6896461,10.3338533 17.6222725,10.9597631 C16.5544344,11.5852015 13.3527781,7.98763449 12.7359495,6.90454671 C12.1195853,5.8205163 12.4851306,4.43484265 13.5534332,3.80893292 C14.6212713,3.18302319 15.9868406,3.55489275 16.6036692,4.63845184" id="Fill-6" fill="url(#linearGradient-3)"></path>
                        <path d="M6.67211179,12.9683929 C7.75619974,13.5847866 11.3534864,16.7865965 10.7275434,17.8540213 C10.1016005,18.9219106 5.49045591,17.4526918 4.40636795,16.8358336 C3.32227999,16.2189754 2.95086203,14.8542696 3.57727633,13.7854513 C4.20274795,12.7170975 5.58802383,12.3515347 6.67211179,12.9683929" id="Fill-8" fill="url(#linearGradient-4)"></path>
                        <path d="M2.2724,24.8419611 C3.52796364,24.8419611 8.28170909,25.8979065 8.28170909,27.2017611 C8.28170909,28.5041429 3.52796364,29.5610701 2.27334545,29.5610701 C1.01825455,29.5610701 1.77635684e-14,28.5051247 1.77635684e-14,27.2017611 C1.77635684e-14,25.8979065 1.01825455,24.8419611 2.2724,24.8419611" id="Fill-10" fill="url(#linearGradient-5)"></path>
                        <path d="M4.40630594,37.6288412 C5.49029693,37.0124232 10.1019716,35.5426819 10.7278586,36.6101489 C11.3523317,37.6780803 7.7553668,40.8800167 6.67278971,41.4959703 C5.58879872,42.1128528 4.20223285,41.7477401 3.57681718,40.6793441 C2.95093021,39.6109481 3.32278625,38.2457238 4.40630594,37.6288412" id="Fill-13" fill="url(#linearGradient-4)"></path>
                        <path d="M12.7362115,47.5606076 C13.3530938,46.4765543 16.5541,42.8789112 17.6224956,43.5048342 C18.6894976,44.1307572 17.2197569,48.7426971 16.6042681,49.8258078 C15.9873858,50.9093898 14.621233,51.2817385 13.5528374,50.6553442 C12.4844418,50.0298926 12.1197937,48.6441896 12.7362115,47.5606076" id="Fill-15" fill="url(#linearGradient-3)"></path>
                        <path d="M24.9975109,52.2868356 C24.9975109,51.031272 26.0534564,46.2779992 27.3578018,46.2775265 C28.6601836,46.2779992 29.7171109,51.0322174 29.7171109,52.2858901 C29.7171109,53.5414538 28.6601836,54.5597083 27.35682,54.5597083 C26.0524745,54.5597083 24.9975109,53.5414538 24.9975109,52.2868356" id="Fill-17" fill="url(#linearGradient-6)"></path>
                        <path d="M41.5908833,6.90399524 C40.9744269,7.98811638 37.7722911,11.5859845 36.7047576,10.959551 C35.6386178,10.3335889 37.107057,5.72136048 37.7230489,4.63865341 C38.3399699,3.55547498 39.7057437,3.18263158 40.7751354,3.80906506 C41.843598,4.43502718 42.2078043,5.82081681 41.5908833,6.90399524" id="Fill-29" fill="url(#linearGradient-3)"></path>
                        <path d="M49.9207246,16.835481 C48.8368053,17.4524095 44.2254358,18.9217958 43.5995902,17.8542493 C42.9756297,16.7871673 46.5723566,13.5840633 47.6543908,12.9685285 C48.73831,12.3516 50.1243129,12.7167399 50.751101,13.78568 C51.3769465,14.8541556 51.0037013,16.2194816 49.9207246,16.835481" id="Fill-27" fill="url(#linearGradient-4)"></path>
                        <path d="M37.7242351,49.8261697 C37.1072823,48.7421639 35.6378381,44.1308975 36.7054267,43.5045307 C37.7725507,42.8800491 40.975781,46.4770631 41.5913401,47.559655 C42.208293,48.6436608 41.8422095,50.0297742 40.7736918,50.6556698 C39.7056386,51.2815653 38.3402588,50.9092329 37.7242351,49.8261697" id="Fill-20" fill="url(#linearGradient-3)"></path>
                        <path d="M47.655593,41.4961804 C46.570972,40.87977 42.9744231,37.6778732 43.5999304,36.6099549 C44.225909,35.5429657 48.838259,37.0122243 49.9205232,37.6281702 C51.0042015,38.2450451 51.3770548,39.610717 50.7506048,40.6795643 C50.1246262,41.7479471 48.7388,42.1125908 47.655593,41.4961804" id="Fill-22" fill="url(#linearGradient-4)"></path>
                        <path d="M52.2403447,29.5621501 C50.9598471,29.5621501 46.109872,28.5052229 46.109872,27.2018592 C46.1108366,25.8999683 50.9608117,24.8420592 52.2393801,24.8420592 C53.52036,24.8430411 54.5601916,25.8989865 54.5601916,27.2023501 C54.5601916,28.5062047 53.52036,29.5621501 52.2403447,29.5621501" id="Fill-24" fill="url(#linearGradient-7)"></path>
                    </g>
                    <g id="Nuvola" transform="translate(10.163778, 26.759519)" fill="url(#linearGradient-8)" fill-rule="nonzero">
                        <path d="M37.4905455,4.16254545 C41.9977511,4.16254545 45.7500206,7.59988172 46.168267,12.0571442 L46.2590573,13.0246981 L47.2191261,13.1752687 C50.7646188,13.7313191 53.4105818,16.7901356 53.4105818,20.4111636 C53.4105818,24.4618102 50.126278,27.7458545 46.0755636,27.7458545 L46.0247265,27.7430071 L46.0060178,27.7417277 C45.947757,27.7376782 45.947757,27.7376782 45.8634746,27.7336394 L45.0916567,27.7047324 L44.7204901,28.3820608 C43.397559,30.7962299 40.8659501,32.3283273 38.0632727,32.3283273 C36.2779109,32.3283273 34.5909809,31.7113854 33.2417534,30.5998486 L32.4587755,29.9548064 L31.6664022,30.5882718 C30.5285128,31.4979613 29.1272866,32.0004 27.6468364,32.0004 C26.9416216,32.0004 26.2453526,31.8811339 25.5700621,31.6507407 L24.8511144,31.4054527 L24.3022557,31.9306253 C23.1244652,33.0575881 21.5727349,33.6956727 19.9173091,33.6956727 C17.3910805,33.6956727 15.1391971,32.2048151 14.1214547,29.9338196 L13.7513683,29.108007 L12.8512882,29.2017418 C12.6291097,29.2248796 12.4079995,29.2365818 12.1877818,29.2365818 C9.21314285,29.2365818 6.65557407,27.1824462 5.98085837,24.3224075 L5.81805673,23.6323109 L5.14220419,23.4179258 C2.25234963,22.5012439 0.25,19.8098587 0.25,16.7309818 C0.25,12.866756 3.37541171,9.73113137 7.23918364,9.71668217 L8.38914186,9.71238171 L8.48055359,8.5660544 C8.75184419,5.16399839 11.5960855,2.5216 15.0272,2.5216 C16.2832387,2.5216 17.4866018,2.87940023 18.5376508,3.54507409 L19.4960132,4.15204556 L20.1928431,3.25689142 C21.6599784,1.37219582 23.8973398,0.25 26.3220364,0.25 C29.1223807,0.25 31.6592643,1.74773898 33.0440297,4.13422494 L33.5668063,5.03517097 L34.5472651,4.68346146 C35.5030756,4.3405938 36.4899577,4.16254545 37.4905455,4.16254545 Z" id="Fill-1"></path>
                    </g>
                    <g id="Goccia" transform="translate(40.909091, 59.727273)"></g>
                </g>
            </g>
            <path d="M30.9374604,73.0519163 L39.3381562,64.7837716 C39.6827434,64.4461869 39.4366292,63.8701496 38.9498428,63.8701496 L38.2798654,63.8701496 C37.8232143,63.8701496 37.5661345,63.3530289 37.8505604,63.0020748 L42.3051988,57.4989091 C42.5895974,57.1479283 42.3353068,56.6308343 41.8758664,56.6308343 L39.6362551,56.6308343 C39.1850459,56.6308343 38.9279933,56.1271366 39.1987189,55.7734764 L44.8893973,48.3573578 C45.1601228,48.0036977 44.9030703,47.5 44.451861,47.5 L35.4522875,47.5 C35.2444304,47.5 35.0530083,47.6152075 34.9627938,47.797396 L30.56282,56.5183329 C30.3823363,56.8746722 30.6475927,57.2926342 31.0523137,57.2926342 L33.081388,57.2926342 C33.486109,57.2926342 33.7513654,57.7105961 33.5708817,58.0669355 L30.56282,64.030931 C30.3823363,64.3872972 30.6475927,64.8052323 31.0523137,64.8052323 L32.9638001,64.8052323 C33.3685212,64.8052323 33.6310156,65.2178358 33.4560284,65.5741484 L30.0596534,72.4410757 C29.7889278,72.9849353 30.5026588,73.4805953 30.9374604,73.0519163 Z" id="Path" fill="url(#linearGradient-9)" fill-rule="nonzero"></path>
        </g>
    </g>
</svg>