<?xml version="1.0" encoding="UTF-8"?>
<svg width="25px" height="25px" viewBox="0 0 25 25" version="1.1" xmlns="http://www.w3.org/2000/svg" xmlns:xlink="http://www.w3.org/1999/xlink">
    <title>ic_temp_low_25pt</title>
    <defs>
        <linearGradient x1="50%" y1="0%" x2="50%" y2="100%" id="linearGradient-1">
            <stop stop-color="#32C5FF" offset="0%"></stop>
            <stop stop-color="#DAE4E8" offset="100%"></stop>
        </linearGradient>
    </defs>
    <g id="ic_temp_low_25pt" stroke="none" stroke-width="1" fill="none" fill-rule="evenodd">
        <rect id="Rectangle" x="0" y="0" width="25" height="25"></rect>
        <g id="Black-L" transform="translate(12.500000, 12.500000) rotate(-180.000000) translate(-12.500000, -12.500000) translate(5.000000, 4.000000)" fill="url(#linearGradient-1)" fill-rule="nonzero">
            <path d="M7.24340976,16.9495252 C8.18820894,16.9495252 8.82258537,16.2949008 8.82258537,15.2961163 L8.82258537,6.79962683 L8.73484878,4.92350407 L10.0238358,6.46894228 L11.8595041,8.31131382 C12.1496098,8.60824715 12.5073008,8.82420244 12.993252,8.82420244 C13.8367561,8.82420244 14.4779187,8.20332927 14.4779187,7.30577073 C14.4779187,6.89410813 14.3091626,6.50267967 13.9919675,6.17875366 L8.40416423,0.584164228 C8.12073415,0.300720325 7.66857561,0.125247154 7.24340976,0.125247154 C6.8182439,0.125247154 6.35934065,0.300720325 6.08265528,0.584164228 L0.501555285,6.17875366 C0.177629268,6.50267967 0.00891463415,6.89410813 0.00891463415,7.30577073 C0.00891463415,8.20332927 0.650021951,8.82420244 1.50035366,8.82420244 C1.98624959,8.82420244 2.34392683,8.60824715 2.62737073,8.31131382 L4.45623902,6.46894228 L5.74522602,4.92350407 L5.66423415,6.79962683 L5.66423415,15.2961163 C5.66423415,16.2949008 6.29185203,16.9495252 7.24340976,16.9495252 Z" id="Path"></path>
        </g>
    </g>
</svg>