<?xml version="1.0" encoding="UTF-8"?>
<svg width="40px" height="40px" viewBox="0 0 40 40" version="1.1" xmlns="http://www.w3.org/2000/svg" xmlns:xlink="http://www.w3.org/1999/xlink">
    <title>ic_wind_40px</title>
    <defs>
        <linearGradient x1="0.550063776%" y1="28.0222506%" x2="96.2145395%" y2="70.5397954%" id="linearGradient-1">
            <stop stop-color="#CCD1D9" offset="0%"></stop>
            <stop stop-color="#8F9AA8" offset="100%"></stop>
        </linearGradient>
        <linearGradient x1="0.550063776%" y1="44.1567946%" x2="96.2145395%" y2="55.4608977%" id="linearGradient-2">
            <stop stop-color="#CCD1D9" offset="0%"></stop>
            <stop stop-color="#8F9AA8" offset="100%"></stop>
        </linearGradient>
    </defs>
    <g id="ic_wind_40px" stroke="none" stroke-width="1" fill="none" fill-rule="evenodd">
        <rect id="icon" x="0" y="0" width="40" height="40"></rect>
        <g id="Group" transform="translate(4.000000, 7.000000)" fill-rule="nonzero">
            <path d="M6,11 C5.17157288,11 4.5,10.3284271 4.5,9.5 C4.5,8.67157288 5.17157288,8 6,8 L6,8 L15.5,8 C16.8807119,8 18,6.88071187 18,5.5 C18,4.11928813 16.8807119,3 15.5,3 C14.1192881,3 13,4.11928813 13,5.5 C13,6.32842712 12.3284271,7 11.5,7 C10.6715729,7 10,6.32842712 10,5.5 C10,2.46243388 12.4624339,0 15.5,0 C18.5375661,0 21,2.46243388 21,5.5 C21,8.18495404 19.0760809,10.4205527 16.5316335,10.9034051 C16.3662225,10.9657399 16.1871122,11 16,11 L16,11 Z" id="Combined-Shape" fill="url(#linearGradient-1)"></path>
            <path d="M26.5,4 C29.5375661,4 32,6.46243388 32,9.5 C32,12.5375661 29.5375661,15 26.5,15 C26.4149799,15 26.331612,14.9929266 26.2504524,14.9793362 L26.14446,14.9931334 L26.14446,14.9931334 L26,15 L1.5,15 C0.671572875,15 0,14.3284271 0,13.5 C0,12.6715729 0.671572875,12 1.5,12 L1.5,12 L26,12 C26.0850201,12 26.168388,12.0070734 26.2495476,12.0206638 L26.35554,12.0068666 L26.35554,12.0068666 L26.5,12 C27.8807119,12 29,10.8807119 29,9.5 C29,8.11928813 27.8807119,7 26.5,7 C25.1192881,7 24,8.11928813 24,9.5 C24,10.3284271 23.3284271,11 22.5,11 C21.6715729,11 21,10.3284271 21,9.5 C21,6.46243388 23.4624339,4 26.5,4 Z" id="Combined-Shape" fill="url(#linearGradient-2)"></path>
            <path d="M10,19 C9.17157288,19 8.5,18.3284271 8.5,17.5 C8.5,16.6715729 9.17157288,16 10,16 L20,16 C20.1871122,16 20.3662225,16.0342601 20.5314001,16.0968495 C23.0760809,16.5794473 25,18.815046 25,21.5 C25,24.5375661 22.5375661,27 19.5,27 C18.6715729,27 18,26.3284271 18,25.5 C18,24.6715729 18.6715729,24 19.5,24 C20.8807119,24 22,22.8807119 22,21.5 C22,20.1192881 20.8807119,19 19.5,19 L10,19 Z" id="Combined-Shape" fill="url(#linearGradient-1)"></path>
        </g>
    </g>
</svg>