<svg xmlns="http://www.w3.org/2000/svg" width="20" height="20" viewBox="0 0 20 20">
    <path fill="#797979" d="M8.046 16.092c1.748 0 3.359-.565 4.677-1.506l4.96 4.96c.23.23.533.344.858.344.68 0 1.161-.523 1.161-1.192 0-.314-.104-.607-.335-.837l-4.928-4.939c1.036-1.36 1.653-3.045 1.653-4.876C16.092 3.62 12.472 0 8.046 0 3.62 0 0 3.62 0 8.046c0 4.426 3.62 8.046 8.046 8.046zm0-1.737c-3.453 0-6.31-2.856-6.31-6.309 0-3.453 2.857-6.31 6.31-6.31 3.453 0 6.31 2.857 6.31 6.31 0 3.453-2.857 6.31-6.31 6.31z"/>
</svg>
